<?xml version="1.0" encoding="UTF-8"?>
<svg width="320px" height="40px" viewBox="0 0 320 40" version="1.1" xmlns="http://www.w3.org/2000/svg" xmlns:xlink="http://www.w3.org/1999/xlink">
    <title>编组</title>
    <g id="页面-1" stroke="none" stroke-width="1" fill="none" fill-rule="evenodd">
        <g id="编组">
            <polygon id="路径-2" fill="#DC2626" points="320 0 320 40 1.06858966e-14 40 40 0"></polygon>
            <g id="LIVE-STREAMING" transform="translate(108.177516, 11.167969)" fill="#000000" fill-rule="nonzero">
                <polygon id="路径" points="4.312 1.24403125 4.312 14.1800313 9.482 14.1800313 9.482 17.8320312 -5.68434189e-14 17.8320312 -5.68434189e-14 1.24403125"></polygon>
                <polygon id="路径" points="16.016 1.24403125 16.016 17.8320312 11.704 17.8320312 11.704 1.24403125"></polygon>
                <polygon id="路径" points="22.44 1.24403125 26.444 11.3420312 30.47 1.24403125 35.156 1.24403125 28.16 17.8320312 24.728 17.8320312 17.754 1.24403125"></polygon>
                <polygon id="路径" points="46.332 4.89603125 41.206 4.89603125 41.206 7.66803125 46.046 7.66803125 46.046 11.3200312 41.206 11.3200312 41.206 14.1800313 46.332 14.1800313 46.332 17.8320312 36.894 17.8320312 36.894 1.24403125 46.332 1.24403125"></polygon>
                <path d="M66.5412344,3.71679688 L64.5109609,4.91992188 C64.1314036,4.26106771 63.76975,3.83138021 63.426,3.63085938 C63.0679271,3.40169271 62.606013,3.28710938 62.0402578,3.28710938 C61.3455964,3.28710938 60.769099,3.48404948 60.3107656,3.87792969 C59.8524323,4.26464844 59.6232656,4.7516276 59.6232656,5.33886719 C59.6232656,6.14811198 60.2248281,6.79980469 61.4279531,7.29394531 L63.08225,7.97070312 C64.4286042,8.51497396 65.4133047,9.17919922 66.0363516,9.96337891 C66.6593984,10.7475586 66.9709219,11.7089844 66.9709219,12.8476562 C66.9709219,14.3730469 66.4624583,15.6334635 65.4455312,16.6289062 C64.4214427,17.6315104 63.1502839,18.1328125 61.6320547,18.1328125 C60.1926016,18.1328125 59.0037995,17.7067057 58.0656484,16.8544922 C57.1418203,16.0022786 56.5653229,14.8027344 56.3361562,13.2558594 L58.8713125,12.6972656 C58.9858958,13.671224 59.1864167,14.344401 59.472875,14.7167969 C59.9885,15.4329427 60.7404531,15.7910156 61.7287344,15.7910156 C62.5093333,15.7910156 63.1574453,15.5296224 63.6730703,15.0068359 C64.1886953,14.4840495 64.4465078,13.8216146 64.4465078,13.0195312 C64.4465078,12.6972656 64.4017487,12.4018555 64.3122305,12.1333008 C64.2227122,11.8647461 64.0830638,11.6176758 63.8932852,11.3920898 C63.7035065,11.1665039 63.4582266,10.9552409 63.1574453,10.7583008 C62.8566641,10.5613607 62.4985911,10.3733724 62.0832266,10.1943359 L60.4826406,9.52832031 C58.2124583,8.5686849 57.0773672,7.16503906 57.0773672,5.31738281 C57.0773672,4.07128906 57.5536042,3.02929688 58.5060781,2.19140625 C59.4585521,1.34635417 60.6437734,0.923828125 62.0617422,0.923828125 C63.9738516,0.923828125 65.4670156,1.85481771 66.5412344,3.71679688 Z" id="路径"></path>
                <polygon id="路径" points="74.8771719 3.59863281 74.8771719 17.8320312 72.3742422 17.8320312 72.3742422 3.59863281 68.5607656 3.59863281 68.5607656 1.24609375 78.6799062 1.24609375 78.6799062 3.59863281"></polygon>
                <path d="M86.5324453,10.7636719 L91.6672109,17.8320312 L88.6056875,17.8320312 L83.8683828,11.0429688 L83.4172109,11.0429688 L83.4172109,17.8320312 L80.9142812,17.8320312 L80.9142812,1.24609375 L83.8468984,1.24609375 C86.0383047,1.24609375 87.620987,1.6578776 88.5949453,2.48144531 C89.6691641,3.39811198 90.2062734,4.60839844 90.2062734,6.11230469 C90.2062734,7.28678385 89.8696849,8.29654948 89.1965078,9.14160156 C88.5233307,9.98665365 87.6353099,10.5273438 86.5324453,10.7636719 Z M83.4172109,8.86230469 L84.2121328,8.86230469 C86.5825755,8.86230469 87.7677969,7.95638021 87.7677969,6.14453125 C87.7677969,4.44726562 86.6148021,3.59863281 84.3088125,3.59863281 L83.4172109,3.59863281 L83.4172109,8.86230469 Z" id="形状"></path>
                <polygon id="路径" points="103.311742 3.59863281 96.6623281 3.59863281 96.6623281 7.58398438 103.118383 7.58398438 103.118383 9.93652344 96.6623281 9.93652344 96.6623281 15.4794922 103.311742 15.4794922 103.311742 17.8320312 94.1593984 17.8320312 94.1593984 1.24609375 103.311742 1.24609375"></polygon>
                <path d="M116.342016,13.8037109 L109.24143,13.8037109 L107.393773,17.8320312 L104.697484,17.8320312 L112.904516,0.204101562 L120.821508,17.8320312 L118.08225,17.8320312 L116.342016,13.8037109 Z M115.321508,11.4511719 L112.861547,5.81152344 L110.283422,11.4511719 L115.321508,11.4511719 Z" id="形状"></path>
                <polygon id="路径" points="122.314672 17.8320312 125.805883 0 131.499242 12.890625 137.396703 0 140.533422 17.8320312 137.966039 17.8320312 136.365453 7.8203125 131.456273 18.5947266 126.686742 7.80957031 124.903539 17.8320312"></polygon>
                <polygon id="路径" points="146.549047 1.24609375 146.549047 17.8320312 144.046117 17.8320312 144.046117 1.24609375"></polygon>
                <polygon id="路径" points="150.534398 17.8320312 150.534398 0.118164062 162.630102 12.7724609 162.630102 1.24609375 165.133031 1.24609375 165.133031 18.8417969 153.037328 6.21972656 153.037328 17.8320312"></polygon>
                <path d="M177.808812,9.1953125 L184.662328,9.1953125 L184.662328,9.74316406 C184.662328,10.9892578 184.515518,12.0921224 184.221898,13.0517578 C183.93544,13.9397786 183.452042,14.7705078 182.771703,15.5439453 C181.23199,17.2770182 179.273331,18.1435547 176.895727,18.1435547 C174.575414,18.1435547 172.588109,17.3056641 170.933812,15.6298828 C169.279516,13.9469401 168.452367,11.9274089 168.452367,9.57128906 C168.452367,7.16503906 169.293839,5.12402344 170.976781,3.44824219 C172.659724,1.76529948 174.707901,0.923828125 177.121312,0.923828125 C178.417536,0.923828125 179.627823,1.18880208 180.752172,1.71875 C181.826391,2.24869792 182.882706,3.10807292 183.921117,4.296875 L182.137914,6.00488281 C180.777237,4.19303385 179.119359,3.28710938 177.164281,3.28710938 C175.409724,3.28710938 173.938044,3.8922526 172.749242,5.10253906 C171.56044,6.29134115 170.966039,7.78092448 170.966039,9.57128906 C170.966039,11.4189453 171.628474,12.9407552 172.953344,14.1367188 C174.192276,15.2467448 175.535049,15.8017578 176.981664,15.8017578 C178.213435,15.8017578 179.31988,15.3863932 180.301,14.5556641 C181.28212,13.7177734 181.829971,12.7151693 181.944555,11.5478516 L177.808812,11.5478516 L177.808812,9.1953125 Z" id="路径"></path>
            </g>
            <rect id="矩形" fill="#8F0F0F" x="59" y="11" width="37" height="22" rx="3"></rect>
            <path d="M89,27.1854 C89,27.8639 88.2341,28.2618 87.6798,27.8708 L82.1,23.9516 L82.1,26.5 C82.1,27.7696 81.0696,28.8 79.8,28.8 L68.3,28.8 C67.0304,28.8 66,27.7696 66,26.5 L66,17.3 C66,16.0304 67.0304,15 68.3,15 L79.8,15 C81.0696,15 82.1,16.0304 82.1,17.3 L82.1,19.8484 L87.6798,15.9269 C88.2341,15.5382 89,15.9361 89,16.6146 L89,27.1854 Z" id="路径" fill="#FFFFFF" fill-rule="nonzero"></path>
        </g>
    </g>
</svg>